<?xml version="1.0" encoding="UTF-8" standalone="no"?>
<svg
   xmlns:dc="http://purl.org/dc/elements/1.1/"
   xmlns:cc="http://creativecommons.org/ns#"
   xmlns:rdf="http://www.w3.org/1999/02/22-rdf-syntax-ns#"
   xmlns:svg="http://www.w3.org/2000/svg"
   xmlns="http://www.w3.org/2000/svg"
   xmlns:sodipodi="http://sodipodi.sourceforge.net/DTD/sodipodi-0.dtd"
   xmlns:inkscape="http://www.inkscape.org/namespaces/inkscape"
   inkscape:version="1.0 (4035a4fb49, 2020-05-01)"
   sodipodi:docname="Icon_full_1.svg"
   id="svg12"
   version="1.1"
   viewBox="0 0 223.2 58.32"
   height="58.32pt"
   width="223.2pt">
  <metadata
     id="metadata16">
    <rdf:RDF>
      <cc:Work
         rdf:about="">
        <dc:format>image/svg+xml</dc:format>
        <dc:type
           rdf:resource="http://purl.org/dc/dcmitype/StillImage" />
        <dc:title></dc:title>
      </cc:Work>
    </rdf:RDF>
  </metadata>
  <sodipodi:namedview
     inkscape:current-layer="shape0"
     inkscape:window-maximized="1"
     inkscape:window-y="-8"
     inkscape:window-x="-8"
     inkscape:cy="30.943326"
     inkscape:cx="141.75552"
     inkscape:zoom="5.4030942"
     showgrid="false"
     id="namedview14"
     inkscape:window-height="1057"
     inkscape:window-width="1858"
     inkscape:pageshadow="2"
     inkscape:pageopacity="0"
     guidetolerance="10"
     gridtolerance="10"
     objecttolerance="10"
     borderopacity="1"
     bordercolor="#666666"
     pagecolor="#ffffff" />
  <defs
     id="defs2" />
  <g
     style="font-style:normal;font-variant:normal;font-weight:normal;font-stretch:normal;font-size:35.5323px;font-family:'Grandstander Black';-inkscape-font-specification:'Grandstander Black, Normal';font-variant-ligatures:normal;font-variant-caps:normal;font-variant-numeric:normal;font-variant-east-asian:normal;letter-spacing:0;word-spacing:0;fill:#ffffff;stroke:#000000;stroke-width:0;stroke-linecap:square;stroke-linejoin:bevel;stroke-opacity:0"
     id="shape0"
     aria-label="KOI FARM">
    <path
       id="path859"
       style="font-style:normal;font-variant:normal;font-weight:normal;font-stretch:normal;font-size:35.5323px;font-family:'Grandstander Black';-inkscape-font-specification:'Grandstander Black, Normal';font-variant-ligatures:normal;font-variant-caps:normal;font-variant-numeric:normal;font-variant-east-asian:normal;fill:#ffffff;stroke-width:0"
       d="m 68.956314,42.700856 q 0,-1.208098 -0.0533,-2.966947 -0.03553,-1.758849 -0.106597,-3.87302 -0.0533,-2.114172 -0.159896,-4.370473 -0.08883,-2.274067 -0.195427,-4.512602 -0.08883,-2.238535 -0.195428,-4.24611 -0.08883,-2.025341 -0.177661,-3.624294 0.78171,-0.142129 1.776615,-0.195428 1.01267,-0.07106 1.865445,-0.07106 1.065969,0 1.989809,0.08883 0.92384,0.07107 1.439058,0.159896 0,0.479686 0.01777,1.492356 0.03553,1.012671 0.0533,2.291833 0.03553,1.279163 0.07106,2.576092 0.0533,1.296929 0.106597,2.3096 0.550751,-0.550751 1.1548,-1.474591 0.604049,-0.941606 1.261397,-2.149704 0.657347,-1.208098 1.350227,-2.611624 0.69288,-1.421292 1.421292,-2.949181 1.776615,1.350228 3.464399,2.345132 1.687784,0.977138 2.39843,1.350227 -0.159895,0.497452 -0.728412,1.474591 -0.568517,0.959372 -1.350227,2.131938 -0.781711,1.154799 -1.652252,2.256301 -0.870542,1.101501 -1.652252,1.847679 0.817243,0.994905 1.634486,2.114172 0.817243,1.101501 1.545655,2.203003 0.746178,1.101501 1.350227,2.078639 0.604049,0.977138 1.012671,1.741083 0.408621,0.746178 0.568516,1.137033 -0.55075,0.355323 -1.652252,0.941606 -1.083735,0.586283 -2.327365,1.1548 -1.243631,0.550751 -2.256301,0.870541 -0.23096,-0.568517 -0.639582,-1.385759 -0.390855,-0.835009 -0.888307,-1.776615 -0.479686,-0.941606 -0.977138,-1.865446 -0.497452,-0.92384 -0.92384,-1.687784 -0.426388,-0.781711 -0.728412,-1.243631 -0.284259,0.23096 -0.497452,0.355323 -0.195428,0.106597 -0.444154,0.248726 0.07107,0.906074 0.159895,2.007575 0.08883,1.101501 0.159896,2.149704 0.07106,1.048203 0.124363,1.84768 0.0533,0.78171 0.0533,1.083735 -0.390855,0.01777 -1.581187,0.124363 -1.172566,0.106597 -2.718221,0.266492 -1.545655,0.177662 -3.073544,0.355323 z" />
    <path
       id="path861"
       style="font-style:normal;font-variant:normal;font-weight:normal;font-stretch:normal;font-size:35.5323px;font-family:'Grandstander Black';-inkscape-font-specification:'Grandstander Black, Normal';font-variant-ligatures:normal;font-variant-caps:normal;font-variant-numeric:normal;font-variant-east-asian:normal;fill:#ffffff;stroke-width:0"
       d="m 99.252595,43.038413 q -3.908552,0 -6.378047,-1.598953 -2.451729,-1.598954 -3.606529,-4.370473 -1.154799,-2.771519 -1.154799,-6.289217 0,-3.499932 1.332461,-6.218152 1.350227,-2.735987 3.837488,-4.299409 2.487261,-1.581187 5.969426,-1.581187 2.895885,0 4.992285,0.906074 2.11418,0.888307 3.4644,2.505027 1.368,1.616719 2.02534,3.801956 0.65735,2.185236 0.65735,4.779094 0,2.39843 -0.63958,4.619199 -0.63958,2.220769 -1.98981,3.961851 -1.33246,1.741083 -3.44663,2.77152 -2.11417,1.01267 -5.063355,1.01267 z m 0.124364,-7.124226 q 1.439061,0 2.469491,-0.852775 1.04821,-0.870541 1.59896,-2.256301 0.55075,-1.38576 0.55075,-2.931415 0,-1.101501 -0.23096,-2.078639 -0.23096,-0.994905 -0.72841,-1.741083 -0.49746,-0.746178 -1.33247,-1.172566 -0.81724,-0.426387 -2.025337,-0.426387 -1.225864,0 -2.256301,0.835009 -1.030437,0.835009 -1.652252,2.238535 -0.621815,1.385759 -0.621815,3.055777 0,1.563421 0.373089,2.77152 0.373089,1.190332 1.296929,1.883211 0.92384,0.675114 2.558326,0.675114 z" />
    <path
       id="path863"
       style="font-style:normal;font-variant:normal;font-weight:normal;font-stretch:normal;font-size:35.5323px;font-family:'Grandstander Black';-inkscape-font-specification:'Grandstander Black, Normal';font-variant-ligatures:normal;font-variant-caps:normal;font-variant-numeric:normal;font-variant-east-asian:normal;fill:#ffffff;stroke-width:0"
       d="m 119.83413,42.558727 q -0.88831,0 -2.06088,-0.01777 -1.17256,-0.01777 -2.36289,-0.08883 -1.19034,-0.0533 -2.18524,-0.177661 -0.0355,-1.065969 -0.0711,-2.77152 -0.0355,-1.723316 -0.0711,-3.730891 -0.0178,-2.025341 -0.0178,-3.944085 0,-3.038012 0.0533,-6.324749 0.0533,-3.304504 0.14213,-6.733371 0.37309,-0.01777 1.19033,-0.03553 0.83501,-0.01777 1.86545,-0.03553 1.03044,-0.03553 2.00757,-0.0533 0.97714,-0.01777 1.63449,-0.01777 0.1066,1.723316 0.17766,4.015149 0.0888,2.274068 0.12436,4.796861 0.0533,2.505027 0.0533,4.956756 0,1.261396 -0.0178,2.469494 -0.0178,1.208098 -0.0533,2.327366 -0.0178,1.101501 -0.0888,2.096406 -0.0533,0.977138 -0.14213,1.812147 -0.0711,0.835009 -0.17766,1.456824 z" />
    <path
       id="path865"
       style="font-style:normal;font-variant:normal;font-weight:normal;font-stretch:normal;font-size:35.5323px;font-family:'Grandstander Black';-inkscape-font-specification:'Grandstander Black, Normal';font-variant-ligatures:normal;font-variant-caps:normal;font-variant-numeric:normal;font-variant-east-asian:normal;fill:#ffffff;stroke-width:0"
       d="m 142.34605,42.132339 -7.56838,-0.302024 q -0.0888,-3.837488 -0.21319,-7.639444 -0.1066,-3.801956 -0.23096,-7.586146 -0.12436,-3.801956 -0.28426,-7.586146 1.91875,-0.142129 3.87302,-0.177662 1.95428,-0.0533 3.74866,-0.0533 2.16747,0 3.92632,0.177662 1.75885,0.177661 2.84258,0.426387 0.12437,1.563421 0.19543,3.197907 0.0711,1.634486 0.0711,2.807052 -0.69288,-0.03553 -2.02535,-0.106597 -1.33246,-0.08883 -2.89588,-0.159896 -1.56342,-0.08883 -2.96695,-0.08883 0.0355,0.266492 0.0711,0.621815 0.0355,0.337557 0.0711,0.710646 0.0533,0.355323 0.0711,0.69288 0.79948,0 1.97204,0.08883 1.17257,0.07107 2.27407,0.195428 1.1015,0.124363 1.67002,0.23096 0,1.296929 -0.0178,2.700455 -0.0178,1.385759 -0.14213,3.002479 -0.62181,-0.07106 -1.51012,-0.142129 -0.87054,-0.08883 -1.84768,-0.142129 -0.95937,-0.0533 -1.86545,-0.0533 0.1599,1.439058 0.30203,3.020246 0.14213,1.581187 0.26649,3.162374 0.12436,1.563421 0.21319,3.002479 z" />
    <path
       id="path867"
       style="font-style:normal;font-variant:normal;font-weight:normal;font-stretch:normal;font-size:35.5323px;font-family:'Grandstander Black';-inkscape-font-specification:'Grandstander Black, Normal';font-variant-ligatures:normal;font-variant-caps:normal;font-variant-numeric:normal;font-variant-east-asian:normal;fill:#ffffff;stroke-width:0"
       d="m 155.95326,42.398832 q -0.49745,0 -1.47459,-0.03553 -0.95937,-0.01777 -2.0964,-0.0533 -1.13704,-0.03553 -2.20301,-0.07106 -1.06596,-0.03553 -1.77661,-0.07106 0.21319,-1.208098 0.56852,-2.931415 0.35532,-1.741083 0.81724,-3.801956 0.46192,-2.060873 0.97714,-4.263876 0.53298,-2.220768 1.08373,-4.406005 0.55075,-2.203002 1.08374,-4.210577 0.53298,-2.007575 0.9949,-3.624295 2.27407,-0.284258 4.13951,-0.426387 1.88322,-0.14213 3.58877,-0.14213 1.1015,0 2.16747,0.07107 1.06597,0.0533 2.1497,0.195428 0.35532,1.563421 0.71065,3.499931 0.37309,1.918744 0.74618,4.583667 0.39085,2.664922 0.78171,6.395814 0.39085,3.730891 0.79947,8.90084 -0.71064,0.08883 -2.07864,0.177662 -1.35022,0.106597 -2.84258,0.159895 -1.49236,0.0533 -2.62939,0.0533 -0.0355,-0.515219 -0.0533,-1.048203 -0.0178,-0.532985 -0.0355,-1.101501 -0.0178,-0.568517 -0.0355,-1.1548 0,-0.586283 0,-1.190332 0,-0.621815 0,-1.243631 -0.56852,0.01777 -1.11927,0.03553 -0.55075,0.01777 -1.06597,0.0533 -0.49745,0.01777 -0.92384,0.0533 -0.42639,0.03553 -0.76394,0.08883 -0.33756,0.03553 -0.53299,0.07106 -0.23096,0.994904 -0.42639,2.007575 -0.19542,1.01267 -0.33755,1.900978 -0.14213,0.888307 -0.2132,1.527889 z m 1.86545,-11.619062 q 0.24872,-0.03553 0.92384,-0.08883 0.67511,-0.0533 1.38576,-0.08883 0.72841,-0.03553 1.06597,-0.03553 -0.0178,-0.266492 -0.0533,-1.190332 -0.0178,-0.92384 -0.0533,-2.025341 -0.0355,-1.101501 -0.0533,-1.972043 -0.0178,-0.870541 -0.0178,-1.048202 -0.2132,0 -0.67512,0.03553 -0.44415,0.01777 -0.87054,0.0533 -0.40862,0.01777 -0.56852,0.03553 -0.10659,0.55075 -0.28425,1.47459 -0.1599,0.906074 -0.33756,1.900978 -0.1599,0.994904 -0.30203,1.794381 -0.12436,0.799477 -0.15989,1.1548 z" />
    <path
       id="path869"
       style="font-style:normal;font-variant:normal;font-weight:normal;font-stretch:normal;font-size:35.5323px;font-family:'Grandstander Black';-inkscape-font-specification:'Grandstander Black, Normal';font-variant-ligatures:normal;font-variant-caps:normal;font-variant-numeric:normal;font-variant-east-asian:normal;fill:#ffffff;stroke-width:0"
       d="m 171.76402,42.558727 q -0.10659,-2.007575 -0.26649,-4.903457 -0.15989,-2.895883 -0.33756,-6.18262 -0.15989,-3.304504 -0.31979,-6.555709 -0.14213,-3.251206 -0.26649,-5.933894 0.74618,-0.07107 1.93651,-0.14213 1.2081,-0.08883 2.59386,-0.159895 1.40353,-0.08883 2.73599,-0.142129 1.33246,-0.0533 2.32736,-0.0533 1.40353,0 2.84259,0.266493 1.45682,0.248726 2.68268,0.906073 1.22587,0.657348 1.97205,1.865446 0.74618,1.208098 0.74618,3.126842 0,1.829914 -0.97714,3.482166 -0.95937,1.634485 -2.3629,2.39843 0.40862,0.799477 0.88831,1.883212 0.49745,1.065969 0.97714,2.256301 0.49745,1.172566 0.9416,2.309599 0.46192,1.137034 0.81724,2.07864 0.35533,0.923839 0.53299,1.492356 -0.65735,0.390855 -1.74108,0.746178 -1.08374,0.337557 -2.22077,0.60405 -1.13704,0.266492 -1.97205,0.426387 -0.81724,0.159895 -0.95937,0.177662 -0.10659,-0.515219 -0.37309,-1.581188 -0.26649,-1.065969 -0.62181,-2.380664 -0.35532,-1.332461 -0.71065,-2.62939 -0.35532,-1.314695 -0.65735,-2.362898 -0.30202,-1.048203 -0.46192,-1.527889 -0.23096,0.03553 -0.40862,0.07106 -0.15989,0.03553 -0.33755,0.0533 -0.1599,0 -0.40862,0.01777 0.0711,0.497452 0.15989,1.439058 0.0888,0.923839 0.17766,2.096405 0.0888,1.172566 0.1599,2.398431 0.0888,1.208098 0.12436,2.274067 0.0533,1.048202 0.0533,1.723316 -0.88831,0.195428 -2.14971,0.284259 -1.24363,0.106596 -2.59385,0.142129 -1.33246,0.03553 -2.5228,0.03553 z m 5.95166,-15.616445 q 0.40863,0 0.85278,-0.01777 0.46192,-0.03553 1.13703,-0.124363 0.78171,-0.106596 1.35023,-0.337556 0.58628,-0.23096 0.88831,-0.621816 0.31979,-0.408621 0.31979,-0.977138 0,-0.639581 -0.33756,-0.906073 -0.33756,-0.284259 -0.97714,-0.355323 -0.63958,-0.07107 -1.56342,-0.07107 -0.28426,0 -0.58628,0.01777 -0.28426,0.01777 -0.55075,0.0533 -0.26649,0.01777 -0.49745,0.0533 -0.2132,0.01777 -0.35533,0.03553 0.0355,0.302025 0.0711,0.639582 0.0355,0.337556 0.0711,0.692879 0.0533,0.355323 0.0711,0.710646 0.0355,0.337557 0.0533,0.657348 0.0355,0.302025 0.0533,0.550751 z" />
    <path
       id="path871"
       style="font-style:normal;font-variant:normal;font-weight:normal;font-stretch:normal;font-size:35.5323px;font-family:'Grandstander Black';-inkscape-font-specification:'Grandstander Black, Normal';font-variant-ligatures:normal;font-variant-caps:normal;font-variant-numeric:normal;font-variant-east-asian:normal;fill:#ffffff;stroke-width:0"
       d="m 190.85819,42.007976 q 0,-1.137033 0,-2.984713 0.0178,-1.865445 0.0355,-4.175045 0.0355,-2.309599 0.0888,-4.850159 0.0533,-2.558325 0.12437,-5.098885 0.0888,-2.558325 0.21319,-4.867925 1.06597,-0.106596 2.50503,-0.159895 1.43906,-0.07106 2.82482,-0.106597 1.40352,-0.03553 2.36289,-0.03553 0.95938,-0.01777 1.04821,-0.01777 0.0355,0.07106 0.21319,0.746178 0.17766,0.675114 0.44415,1.741083 0.28426,1.065969 0.60405,2.345131 0.31979,1.279163 0.63958,2.593858 0.33756,1.314695 0.62182,2.505027 0.30202,1.172566 0.49745,2.025341 0.2132,0.852776 0.28426,1.190332 l -0.79948,0.106597 q 0.1599,-0.426387 0.44416,-1.385759 0.28426,-0.977139 0.63958,-2.256301 0.37309,-1.296929 0.74618,-2.718221 0.39085,-1.421292 0.74618,-2.753753 0.35532,-1.350228 0.62181,-2.398431 0.26649,-1.065969 0.37309,-1.616719 0.92384,0 2.34513,0.03553 1.42129,0.03553 2.87812,0.124363 1.47459,0.08883 2.46949,0.266492 0.35533,1.563422 0.49745,3.944086 0.1599,2.362897 0.1599,5.045586 0,2.291833 -0.0888,4.654731 -0.0711,2.362898 -0.19543,4.459304 -0.12436,2.096405 -0.24872,3.606528 -1.08374,0 -2.34514,-0.03553 -1.26139,-0.0533 -2.38066,-0.124363 -1.11927,-0.07106 -1.75885,-0.106597 0.0533,-0.746178 0.12436,-2.256301 0.0888,-1.510123 0.1599,-3.162375 0.0533,-1.01267 0.0888,-1.972042 0.0533,-0.959372 0.0888,-1.723317 0.0533,-0.78171 0.0888,-1.225864 -0.15989,0.586283 -0.44415,1.47459 -0.28426,0.870542 -0.63958,1.918744 -0.33756,1.030437 -0.71065,2.096406 -0.37309,1.065969 -0.72841,2.043107 -0.33756,0.959372 -0.60405,1.687784 -0.26649,0.728413 -0.42639,1.083736 -0.30202,0.01777 -0.90607,0.03553 -0.60405,0 -0.90608,0 -0.55075,0 -1.13703,-0.0533 -0.58628,-0.0533 -1.33246,-0.124363 -0.0533,-0.302024 -0.19543,-0.941606 -0.12436,-0.639581 -0.31979,-1.527888 -0.17766,-0.906074 -0.39085,-1.936511 -0.2132,-1.048203 -0.44416,-2.114171 -0.21319,-1.083736 -0.44415,-2.096406 -0.21319,-1.030437 -0.40862,-1.883212 -0.19543,-0.870541 -0.33756,-1.456824 0.0178,1.634486 0.0355,3.340036 0.0178,1.70555 0.0178,3.268971 0.0178,1.563422 0.0178,2.824818 0.0178,1.243631 0.0178,2.025341 0.0178,0.781711 0.0178,0.888308 -0.78171,0.01777 -1.97205,0.0533 -1.17256,0.01777 -2.46949,0.03553 -1.29693,0 -2.45173,0 z" />
  </g>
  <path
     style="fill:#ffffff"
     d="M1.25158 6.89429C1.56553 6.96642 2.06051 7.12198 2.7365 7.36098L4.05172 9.27017C5.9397 9.20087 8.30851 9.43422 11.1581 9.97021C11.3618 7.41614 10.98 5.78272 10.1399 4.4972C8.98167 4.90025 7.05127 5.572 4.34871 6.51245C5.54655 4.07576 6.04859 2.10294 5.85484 0.59397C4.68388 0.475176 2.73226 0.277186 0 0C0.159806 3.2293 1.00126 5.48939 1.25158 6.89429Z"
     stroke-linejoin="bevel"
     stroke-linecap="square"
     stroke-width="0"
     stroke-opacity="0"
     stroke="#000000"
     fill-rule="evenodd"
     fill="#ffffff"
     transform="matrix(0.99999995548624 0 0 0.99999995548624 211.87884642932 12.0008944878694)"
     id="shape01" />
  <g
     style="fill:#ffffff"
     fill="none"
     transform="matrix(0.53552907343585 0 0 0.53552907343585 0.00180679617653143 0.0591620029205907)"
     id="group1">
    <path
       style="fill:#ffffff"
       d="M111.276 0.00935832C96.3342 0.328146 82.7474 9.95771 82.8524 25.0777C82.8524 56.2777 98.2129 69.6385 59.3329 81.8785C25.8129 89.1585 12.1346 70.5709 19.4931 60.8375C27.1268 53.5048 37.3833 54.4043 38.454 49.5582C37.1204 45.2494 29.4829 41.5496 13.0927 45.2379C11.7392 29.4895 7.89582 20.9174 4.29384 24.1187C0.393097 27.5855 -0.210256 39.3925 0.0536028 45.4781C7.0615 140.204 137.531 141.116 150.657 51.0881C153.183 12.5916 130.487 -0.40051 111.276 0.00935832ZM125.011 18.8375L125.013 18.8375C128.405 18.8376 131.156 21.9901 131.155 25.8785C131.155 29.7661 128.405 32.9175 125.013 32.9176C121.62 32.9175 118.871 29.7661 118.87 25.8785C118.87 21.991 121.619 18.8388 125.011 18.8375ZM108.516 81.9508C119.412 89.45 108.434 106.978 88.7398 97.3976C88.3174 97.1921 88.3363 96.4374 89.3902 95.8937C96.6815 92.0359 103.866 85.874 106.706 81.8394C107.088 81.2974 107.916 81.5374 108.516 81.9508Z"
       stroke-linejoin="bevel"
       stroke-linecap="square"
       stroke-width="0"
       stroke-opacity="0"
       stroke="#000000"
       fill="#ffffff"
       transform="matrix(0.75 0 0 0.75 4.47804537502799e-08 20.2660882594372)"
       id="shape1" />
    <path
       style="fill:#ffffff"
       d="M4.36715 11.5959C7.52653 11.445 16.7427 5.17967 17.6082 2.40752C18.1441 0.691228 3.06678 -2.24047 0.594609 2.86582C-0.73227 5.60651 0.0101899 11.8039 4.36715 11.5959Z"
       stroke-linejoin="bevel"
       stroke-linecap="square"
       stroke-width="0"
       stroke-opacity="0"
       stroke="#000000"
       fill-rule="evenodd"
       fill="#ffffff"
       transform="translate(43.4629899175941, 66.3366969448413)"
       id="shape2" />
    <path
       style="fill:#ffffff"
       d="M30.5736 0.0132318C22.0925 0.25889 13.2702 3.92773 6.21812 11.1402C-13.0138 31.7806 17.5836 76.0446 27.6576 29.5386C31.4163 12.1866 47.9782 14.4988 52.2982 17.6988C55.1782 19.8321 51.6189 27.5546 47.1771 31.5386C52.233 32.6121 57.1688 27.9125 58.4584 22.8199C63.5354 20.3305 65.7973 17.23 67.4974 12.5796C65.1241 13.0596 61.0437 15.8055 57.0971 15.7789C51.8164 5.0385 41.4779 -0.302616 30.5736 0.0132318ZM19.2592 29.1382C19.4882 29.1427 19.7114 29.1794 19.9252 29.2476C21.6152 29.7884 22.3708 32.146 21.6127 34.5132C20.8549 36.8801 18.8708 38.3605 17.181 37.8199C15.491 37.2791 14.7354 34.9214 15.4935 32.5542C16.1415 30.5309 17.7115 29.1067 19.2592 29.1382Z"
       stroke-linejoin="bevel"
       stroke-linecap="square"
       stroke-width="0"
       stroke-opacity="0"
       stroke="#000000"
       fill="#ffffff"
       transform="matrix(0.75 0 0 0.75 16.4366695100559 -1.73676238390819e-08)"
       id="shape5" />
  </g>
</svg>
