<?xml version="1.0" encoding="UTF-8" standalone="no"?>
<svg
   xmlns:dc="http://purl.org/dc/elements/1.1/"
   xmlns:cc="http://creativecommons.org/ns#"
   xmlns:rdf="http://www.w3.org/1999/02/22-rdf-syntax-ns#"
   xmlns:svg="http://www.w3.org/2000/svg"
   xmlns="http://www.w3.org/2000/svg"
   xmlns:sodipodi="http://sodipodi.sourceforge.net/DTD/sodipodi-0.dtd"
   xmlns:inkscape="http://www.inkscape.org/namespaces/inkscape"
   width="120pt"
   height="120pt"
   viewBox="0 0 120 120"
   version="1.1"
   id="svg857"
   sodipodi:docname="icon_circle.svg"
   inkscape:version="1.0 (4035a4fb49, 2020-05-01)">
  <metadata
     id="metadata861">
    <rdf:RDF>
      <cc:Work
         rdf:about="">
        <dc:format>image/svg+xml</dc:format>
        <dc:type
           rdf:resource="http://purl.org/dc/dcmitype/StillImage" />
        <dc:title></dc:title>
      </cc:Work>
    </rdf:RDF>
  </metadata>
  <sodipodi:namedview
     inkscape:document-rotation="0"
     pagecolor="#ffffff"
     bordercolor="#666666"
     borderopacity="1"
     objecttolerance="10"
     gridtolerance="10"
     guidetolerance="10"
     inkscape:pageopacity="0"
     inkscape:pageshadow="2"
     inkscape:window-width="1920"
     inkscape:window-height="1057"
     id="namedview859"
     showgrid="false"
     inkscape:zoom="4.0207921"
     inkscape:cx="108.55689"
     inkscape:cy="76.431605"
     inkscape:window-x="-5"
     inkscape:window-y="1072"
     inkscape:window-maximized="1"
     inkscape:current-layer="svg857" />
  <defs
     id="defs848" />
  <ellipse
     id="shape0"
     transform="translate(-0.00265165,-0.00265165)"
     rx="60.000217"
     ry="60.002872"
     cx="60.000217"
     cy="60.002872"
     fill="#4ab3b2"
     fill-rule="evenodd"
     stroke="#000000"
     stroke-opacity="0"
     stroke-width="0"
     stroke-linecap="square"
     stroke-linejoin="bevel" />
  <path
     id="shape1"
     style="fill:#ffffff"
     d="m 115.7832,36.851562 c -14.94201,0.318788 -28.528825,9.948354 -28.423825,25.06836 0,31.2 15.360465,44.560778 -23.519531,56.800778 C 30.319844,126.0007 16.641533,107.41315 24,97.679688 31.633733,90.34702 41.89027,91.246524 42.960938,86.400391 41.627338,82.091591 33.989809,78.391811 17.599609,82.080078 16.246129,66.331678 12.402768,57.759603 8.8007812,60.960938 4.9000414,64.427738 4.2966881,76.234713 4.5605469,82.320312 11.56844,177.04591 142.03813,177.95853 155.16346,87.930264 157.69021,49.433814 134.99436,36.441694 115.7832,36.851562 Z m 13.73438,18.828126 h 0.002 c 3.39283,1.05e-4 6.14307,3.152608 6.14258,7.041015 -4.5e-4,3.887645 -2.75042,7.038958 -6.14258,7.039063 -3.39216,-1.05e-4 -6.14213,-3.151418 -6.14258,-7.039063 -4.9e-4,-3.887534 2.74857,-7.039676 6.14063,-7.041015 z m -16.49414,63.113282 c 10.89594,7.49924 -0.0822,25.02765 -19.776696,15.44686 -0.422412,-0.20549 -0.403545,-0.96024 0.65039,-1.50391 7.291266,-3.85786 14.475476,-10.01971 17.315756,-14.05428 0.38159,-0.54205 1.2099,-0.30208 1.81055,0.11133 z"
     transform="scale(0.75)"
     sodipodi:nodetypes="sccccccccssscccsssscss" />
  <path
     id="shape2"
     fill="#ffffff"
     fill-rule="evenodd"
     stroke="#000000"
     stroke-opacity="0"
     stroke-width="0"
     stroke-linecap="square"
     stroke-linejoin="bevel"
     d="m 51.21035,85.298115 c 3.159377,-0.150857 12.375551,-6.416183 13.241067,-9.188331 0.535856,-1.716294 -14.541439,-4.647998 -17.013611,0.458297 -1.326879,2.740684 -0.584418,8.938076 3.772544,8.730034 z"
     sodipodi:nodetypes="ssss" />
  <path
     id="shape5"
     d="M 56.996094 9.8339844 C 48.514962 10.079643 39.692629 13.748487 32.640625 20.960938 C 13.408638 41.601324 44.006078 85.865375 54.080078 39.359375 C 57.838745 22.007348 74.400703 24.319531 78.720703 27.519531 C 81.600703 29.652865 78.041343 37.375375 73.599609 41.359375 C 78.655476 42.432842 83.591259 37.733292 84.880859 32.640625 C 89.957926 30.151292 92.219789 27.050777 93.919922 22.400391 C 91.546589 22.880391 87.466198 25.626276 83.519531 25.599609 C 78.238856 14.859249 67.900406 9.5181371 56.996094 9.8339844 z M 45.681641 38.958984 A 3.2125759 4.5000979 17.759829 0 1 46.347656 39.068359 A 3.2125759 4.5000979 17.759829 0 1 48.035156 44.333984 A 3.2125759 4.5000979 17.759829 0 1 43.603516 47.640625 A 3.2125759 4.5000979 17.759829 0 1 41.916016 42.375 A 3.2125759 4.5000979 17.759829 0 1 45.681641 38.958984 z "
     transform="scale(0.75)"
     style="fill:#ffffff" />
</svg>
